# xmcd
#
# Track frame offsets: 
#        150
#        19583
#        38588
#        59508
#        82663
#        100788
#        116048
#        141173
#        153758
#        167668
#        187418
#
# Disc length: 2749 seconds
#
# Revision: 26
# Processed by: cddbd v1.5.2PL0 Copyright (c) Steve Scherf et al.
# Submitted via: ExactAudioCopy v1.4
#
DISCID=850abb0b
DTITLE=Marc Cohn - Marc Cohn
DYEAR=1991
DGENRE=Pop
TTITLE0=Walking In Memphis
TTITLE1=Ghost Train
TTITLE2=Silver Thunderbird
TTITLE3=Dig Down Deep
TTITLE4=Walk On Water
TTITLE5=Miles Away
TTITLE6=Saving The Best For Last
TTITLE7=Strangers In A Car
TTITLE8=29 Ways
TTITLE9=Perfect Love
TTITLE10=True Companion
EXTD=YEAR: 1991\n
EXTT0=
EXTT1=
EXTT2=
EXTT3=
EXTT4=
EXTT5=
EXTT6=
EXTT7=
EXTT8=
EXTT9=
EXTT10=
PLAYORDER=
